<svg width="435" height="435" viewBox="0 0 435 435" fill="none" xmlns="http://www.w3.org/2000/svg">
<g opacity="0.6">
<path d="M219.345 400.992C256.801 400.992 287.211 408.198 287.211 417.073C287.211 425.948 256.801 433.153 219.345 433.153C181.89 433.153 151.479 425.948 151.479 417.073C151.479 408.198 181.89 400.992 219.345 400.992Z" fill="#C4C4C4"/>
</g>
<path d="M64.7399 108.597C80.8891 108.38 94.22 124.505 94.4898 144.582C94.7596 164.66 81.8668 181.137 65.7177 181.354C49.5685 181.571 36.2376 165.446 35.9678 145.369C35.698 125.291 48.5908 108.814 64.7399 108.597Z" fill="#E1E1E1"/>
<path d="M364.731 104.566C380.88 104.349 394.211 120.474 394.481 140.551C394.751 160.628 381.858 177.106 365.709 177.323C349.56 177.54 336.229 161.415 335.959 141.337C335.689 121.26 348.582 104.783 364.731 104.566Z" fill="#E1E1E1"/>
<path d="M214.864 216.009C208.339 216.009 142.627 210.209 134.361 253.945C130.048 276.762 133.136 323.046 159.358 349.071C179.687 369.248 208.985 368.237 215.918 368.391C223.06 368.55 257.443 369.761 277.336 349.671C301.507 325.263 307.136 276.646 301.728 253C293.723 218.007 241.755 216.009 214.864 216.009Z" fill="url(#paint0_linear_1220_9735)"/>
<path d="M216.709 218.646C249.738 218.646 276.555 226.324 276.555 235.782C276.555 245.24 249.738 252.918 216.709 252.918C183.68 252.918 156.864 245.24 156.864 235.782C156.864 226.324 183.68 218.646 216.709 218.646Z" fill="#D1D1D1"/>
<path d="M216.709 218.646C249.738 218.646 276.555 226.324 276.555 235.782C276.555 245.24 249.738 252.918 216.709 252.918C183.68 252.918 156.864 245.24 156.864 235.782C156.864 226.324 183.68 218.646 216.709 218.646Z" stroke="#939393"/>
<path d="M355.018 84.0827C291.516 -11.0363 117.773 9.22747 77.7546 92.0272C63.171 122.202 39.1875 204.337 135.284 213.592C153.405 215.337 302.956 212.394 302.956 212.394C302.956 212.394 342.239 209.741 360.765 181.846C374.717 160.836 377.632 117.955 355.018 84.0827Z" fill="url(#paint1_linear_1220_9735)"/>
<path d="M344.928 128.45L345.169 146.375C345.419 164.998 330.085 180.326 310.949 180.584L141.375 182.862C122.238 183.12 106.498 168.208 106.248 149.586L106.007 131.66C105.757 113.038 121.091 97.7092 140.227 97.452L309.801 95.1732C328.938 94.916 344.678 109.827 344.928 128.45Z" fill="#222222"/>
<path d="M243.772 96.3289C243.082 99.2548 247.945 151.773 205.886 180.814L318.145 179.169C318.145 179.169 343.993 179.876 344.99 136.359C345.492 114.481 336.928 95.5996 313.987 95.3806C291.046 95.1616 243.776 96.5926 243.772 96.3289Z" fill="#3A3A3A"/>
<path d="M160.263 124.076L160.667 154.128C160.737 159.366 156.542 163.675 151.304 163.746C146.067 163.816 141.757 159.621 141.687 154.383L141.283 124.331C141.213 119.094 145.408 114.784 150.646 114.714C155.883 114.643 160.193 118.839 160.263 124.076Z" fill="#4084FF"/>
<path d="M306.832 122.106L307.235 152.158C307.306 157.396 303.111 161.705 297.873 161.776C292.635 161.846 288.326 157.651 288.255 152.413L287.852 122.362C287.781 117.124 291.976 112.814 297.214 112.744C302.452 112.674 306.761 116.869 306.832 122.106Z" fill="#4084FF"/>
<path d="M101.627 234.025C67.8103 270.16 75.247 316.959 78.4223 331.463C80.2072 339.617 90.2704 343.121 96.1431 340.302C100.718 338.106 101.503 330.631 101.943 327.886C110.651 273.538 120.412 248.343 122.936 242.711C124.111 240.088 123.338 233.304 118.833 231.118C113.664 228.61 104.419 231.043 101.627 234.025Z" fill="#EFEFEF"/>
<path d="M334.165 250.792C372.335 219.289 370.957 171.923 369.667 157.131C368.942 148.817 359.411 144.051 353.225 146.094C348.406 147.686 346.669 154.999 345.881 157.665C330.28 210.449 317.371 234.185 314.146 239.447C312.644 241.898 312.542 248.724 316.729 251.47C321.534 254.62 331.015 253.392 334.165 250.792Z" fill="url(#paint2_linear_1220_9735)"/>
<defs>
<linearGradient id="paint0_linear_1220_9735" x1="141.573" y1="277.7" x2="274.445" y2="276.646" gradientUnits="userSpaceOnUse">
<stop stop-color="#F3F3F3"/>
<stop offset="0.65" stop-color="#D9DEE3"/>
<stop offset="1" stop-color="#C3C3C3"/>
</linearGradient>
<linearGradient id="paint1_linear_1220_9735" x1="72.5474" y1="175.414" x2="333.011" y2="172.968" gradientUnits="userSpaceOnUse">
<stop stop-color="#F3F3F3"/>
<stop offset="0.65" stop-color="#D9DEE3"/>
<stop offset="1" stop-color="#C3C3C3"/>
</linearGradient>
<linearGradient id="paint2_linear_1220_9735" x1="358.969" y1="217.825" x2="311.651" y2="197.863" gradientUnits="userSpaceOnUse">
<stop stop-color="#CECECE"/>
<stop offset="0.65" stop-color="#EDEDED"/>
<stop offset="1" stop-color="#EFEFEF"/>
</linearGradient>
</defs>
</svg>
