<svg xmlns="http://www.w3.org/2000/svg" viewBox="0 0 500 500"><g id="freepik--background-complete--inject-21"><rect y="382.4" width="500" height="0.25" style="fill:#ebebeb"></rect><rect x="416.78" y="398.49" width="33.12" height="0.25" style="fill:#ebebeb"></rect><rect x="322.53" y="401.21" width="8.69" height="0.25" style="fill:#ebebeb"></rect><rect x="396.59" y="389.21" width="19.19" height="0.25" style="fill:#ebebeb"></rect><rect x="52.46" y="390.89" width="43.19" height="0.25" style="fill:#ebebeb"></rect><rect x="104.56" y="390.89" width="6.33" height="0.25" style="fill:#ebebeb"></rect><rect x="131.47" y="395.11" width="93.68" height="0.25" style="fill:#ebebeb"></rect><path d="M237,337.8H43.91a5.71,5.71,0,0,1-5.7-5.71V60.66A5.71,5.71,0,0,1,43.91,55H237a5.71,5.71,0,0,1,5.71,5.71V332.09A5.71,5.71,0,0,1,237,337.8ZM43.91,55.2a5.46,5.46,0,0,0-5.45,5.46V332.09a5.46,5.46,0,0,0,5.45,5.46H237a5.47,5.47,0,0,0,5.46-5.46V60.66A5.47,5.47,0,0,0,237,55.2Z" style="fill:#ebebeb"></path><path d="M453.31,337.8H260.21a5.72,5.72,0,0,1-5.71-5.71V60.66A5.72,5.72,0,0,1,260.21,55h193.1A5.71,5.71,0,0,1,459,60.66V332.09A5.71,5.71,0,0,1,453.31,337.8ZM260.21,55.2a5.47,5.47,0,0,0-5.46,5.46V332.09a5.47,5.47,0,0,0,5.46,5.46h193.1a5.47,5.47,0,0,0,5.46-5.46V60.66a5.47,5.47,0,0,0-5.46-5.46Z" style="fill:#ebebeb"></path><polygon points="103.45 163.73 61.83 163.73 61.83 220.45 80.42 220.45 80.42 381.86 84.85 381.86 84.85 220.45 103.45 220.45 103.45 163.73" style="fill:#e0e0e0"></polygon><path d="M143.44,222.31c2.9-5.52,5.6-11.25,5-12.46-1.22-2.46-2.44-3.64-8.55-4.36-4-.47-4.77-2.8-4.82-4.36a2.67,2.67,0,0,1,.88-2c5.6-5.1,5.91-16.79-3.56-18.3v-.16c-.31,0-.61,0-.91,0h-.3c-.3,0-.6,0-.91,0v.16c-9.47,1.51-9.16,13.2-3.56,18.3a2.67,2.67,0,0,1,.88,2c0,1.56-.82,3.89-4.82,4.36-6.11.72-7.33,1.9-8.55,4.36-.6,1.21,2.1,6.94,5,12.46a24.9,24.9,0,0,1,.82,21.48,69.86,69.86,0,0,0-5.83,23.81,2.76,2.76,0,0,0,2.77,2.88h11.28V379.3h-7.19a2.56,2.56,0,0,0-2.55,2.56h25.64a2.56,2.56,0,0,0-2.55-2.56H134.4V270.48h11.28a2.76,2.76,0,0,0,2.77-2.88,69.86,69.86,0,0,0-5.83-23.81A24.9,24.9,0,0,1,143.44,222.31Z" style="fill:#e0e0e0"></path><path d="M379.78,379.3a2.56,2.56,0,0,0-2.56,2.56h25.64a2.56,2.56,0,0,0-2.55-2.56h-7.19V335.57h5.55V276.91h-5.55v-17.6H224.91v17.6h-3.86v58.66h3.86V379.3h-7.18a2.56,2.56,0,0,0-2.56,2.56h25.64a2.56,2.56,0,0,0-2.55-2.56h-7.19V335.57H387V379.3ZM231.07,276.91V265.18H387v11.73Z" style="fill:#e0e0e0"></path><polygon points="437.8 163.73 396.18 163.73 396.18 220.45 414.78 220.45 414.78 381.86 419.2 381.86 419.2 220.45 437.8 220.45 437.8 163.73" style="fill:#e0e0e0"></polygon><polygon points="354.16 105.7 354.16 69.18 350.63 69.18 350.63 105.7 263.4 105.7 263.4 69.18 259.88 69.18 259.88 105.7 253.25 105.7 253.25 161.14 360.79 161.14 360.79 105.7 354.16 105.7" style="fill:#e0e0e0"></polygon></g><g id="freepik--Shadow--inject-21"><ellipse id="freepik--path--inject-21" cx="250" cy="416.24" rx="193.89" ry="11.32" style="fill:#f5f5f5"></ellipse></g><g id="freepik--Plant--inject-21"><path d="M107.08,341.89c.21,1.47-3.77,2.44-7,3,.26,2.67,2,5.37,4.49,7.89,3.09-1.74,7.49-4,8.3-3.48s-3.62,3.53-6.44,5.25a58,58,0,0,0,6.39,4.84c1.38-1.3,3-2.43,4-1.82s.73,2.64.24,4.42c3.36,2,5.87,3.15,5.87,3.15a67.5,67.5,0,0,0,2.24-9.53c-.17-.33-.34-.67-.49-1-.54-1.25,0-1.78.88-2a32.82,32.82,0,0,0,0-6.86c-3.79-.8-8.41-2.27-6.68-4.55,1-1.38,2.95-1.53,4.94-1.19a8.61,8.61,0,0,0-.94-1.28c-6.91-7.61-11.74,0-11.74,0-4-3.34-9.66-2.44-10.88,2.79C102.51,340.94,106.83,340.08,107.08,341.89Z" style="fill:#407BFF"></path><path d="M107.08,341.89c.21,1.47-3.77,2.44-7,3,.26,2.67,2,5.37,4.49,7.89,3.09-1.74,7.49-4,8.3-3.48s-3.62,3.53-6.44,5.25a58,58,0,0,0,6.39,4.84c1.38-1.3,3-2.43,4-1.82s.73,2.64.24,4.42c3.36,2,5.87,3.15,5.87,3.15a67.5,67.5,0,0,0,2.24-9.53c-.17-.33-.34-.67-.49-1-.54-1.25,0-1.78.88-2a32.82,32.82,0,0,0,0-6.86c-3.79-.8-8.41-2.27-6.68-4.55,1-1.38,2.95-1.53,4.94-1.19a8.61,8.61,0,0,0-.94-1.28c-6.91-7.61-11.74,0-11.74,0-4-3.34-9.66-2.44-10.88,2.79C102.51,340.94,106.83,340.08,107.08,341.89Z" style="fill:#fff;opacity:0.30000000000000004;isolation:isolate"></path><path d="M115.71,397.88l-1-.08c.05-.52,4.1-51.53-7.35-56.34a3.88,3.88,0,0,0-3.47.09c-4.14,2.15-6.12,11.08-6.14,11.17l-1-.21c.09-.39,2.11-9.48,6.66-11.85a4.88,4.88,0,0,1,4.32-.12C119.86,345.63,115.89,395.75,115.71,397.88Z" style="fill:#407BFF"></path><path d="M117.15,396.77c-.2-2.29-4.87-56.27,3.87-62,2.09-1.38,4-1.67,5.55-.87,4.12,2.08,4.67,10.91,4.69,11.29l-1,.05c0-.08-.53-8.62-4.15-10.45-1.24-.62-2.77-.35-4.55.81-8.24,5.41-3.46,60.52-3.41,61.07Z" style="fill:#407BFF"></path><path d="M118.47,401.14c-.07-1.76-1.51-43.08,6.45-46.69a5.55,5.55,0,0,1,4.73,0c5.46,2.4,8.83,12.58,9,13l-1,.31c0-.1-3.37-10.18-8.42-12.4a4.56,4.56,0,0,0-3.92,0c-6.1,2.77-6.3,34-5.86,45.74Z" style="fill:#407BFF"></path><path d="M116.44,399.25l-1-.12c1.4-12.29,4.08-45.06-.3-49a1.72,1.72,0,0,0-1.79-.55c-2.93,1.13-4.72,11.78-5.16,15.79l-1-.11c.17-1.53,1.77-15.07,5.8-16.61a2.64,2.64,0,0,1,2.82.74C121.48,354.47,116.65,397.42,116.44,399.25Z" style="fill:#407BFF"></path><polygon points="99.76 375.94 135.68 375.94 132.68 416.18 102.76 416.18 99.76 375.94" style="fill:#407BFF"></polygon><polygon points="110.67 375.94 111.67 416.18 132.68 416.18 135.68 375.94 110.67 375.94" style="fill:#fff;opacity:0.2;isolation:isolate"></polygon><path d="M104.65,361.17c-.38,1-3.17.21-5.36-.57-.75,1.73-.58,4,.07,6.4,2.5,0,6,.08,6.31.7s-3.44.94-5.77,1a40.53,40.53,0,0,0,2.28,5.17c1.3-.32,2.68-.46,3.07.25s-.45,1.87-1.37,2.8c1.4,2.36,2.54,4,2.54,4a49.35,49.35,0,0,0,4.65-5.11c0-.27,0-.53.05-.81.1-.95.6-1.1,1.21-.9a22.78,22.78,0,0,0,2.39-4.22c-2.07-1.79-4.41-4.29-2.56-5.1,1.11-.49,2.34.07,3.45,1a5.81,5.81,0,0,0-.14-1.11c-1.65-7.07-7.24-4-7.24-4-1.33-3.44-5.12-4.82-7.67-2C102.15,359,105.11,360,104.65,361.17Z" style="fill:#407BFF"></path><path d="M104.65,361.17c-.38,1-3.17.21-5.36-.57-.75,1.73-.58,4,.07,6.4,2.5,0,6,.08,6.31.7s-3.44.94-5.77,1a40.53,40.53,0,0,0,2.28,5.17c1.3-.32,2.68-.46,3.07.25s-.45,1.87-1.37,2.8c1.4,2.36,2.54,4,2.54,4a49.35,49.35,0,0,0,4.65-5.11c0-.27,0-.53.05-.81.1-.95.6-1.1,1.21-.9a22.78,22.78,0,0,0,2.39-4.22c-2.07-1.79-4.41-4.29-2.56-5.1,1.11-.49,2.34.07,3.45,1a5.81,5.81,0,0,0-.14-1.11c-1.65-7.07-7.24-4-7.24-4-1.33-3.44-5.12-4.82-7.67-2C102.15,359,105.11,360,104.65,361.17Z" style="fill:#fff;opacity:0.30000000000000004;isolation:isolate"></path><path d="M131.32,366a13.49,13.49,0,0,0-3.28.69,7.64,7.64,0,0,1-.48-2.38c-.23-7.25,5-4.19,7.7-6.32a5.93,5.93,0,0,1,4.58-1.44,11,11,0,0,0-.62,1.24,1.14,1.14,0,0,0,.88,1.55,3.26,3.26,0,0,0,2-.24,3.71,3.71,0,0,0,.52-.36,10,10,0,0,1,1,2.42,13.52,13.52,0,0,1,.47,3.1,10.37,10.37,0,0,0-1.21.34,1.12,1.12,0,0,0-.45,1.72,4.92,4.92,0,0,0,1.49,1.05,16.82,16.82,0,0,1-.91,3.4c-.12,0-.25,0-.37.06s-.52.12-.78.19a2.32,2.32,0,0,0-.44.16,1.15,1.15,0,0,0-.67.88,1.13,1.13,0,0,0,.42,1,6.1,6.1,0,0,0,.54.34,7.93,7.93,0,0,1-2.87,2.89,31.08,31.08,0,0,1-3.05-1.61c.22-.29.43-.58.63-.88a1.67,1.67,0,0,0,.31-1.14,1.54,1.54,0,0,0-.58-1,1.57,1.57,0,0,0-1.14-.31,1.53,1.53,0,0,0-1,.59c-.25.36-.51.69-.77,1a18.88,18.88,0,0,1-3.68-3.58l.11,0a11.74,11.74,0,0,1,2-.34,1.54,1.54,0,1,0-.4-3.05Z" style="fill:#407BFF"></path><path d="M131.32,366a13.49,13.49,0,0,0-3.28.69,7.64,7.64,0,0,1-.48-2.38c-.23-7.25,5-4.19,7.7-6.32a5.93,5.93,0,0,1,4.58-1.44,11,11,0,0,0-.62,1.24,1.14,1.14,0,0,0,.88,1.55,3.26,3.26,0,0,0,2-.24,3.71,3.71,0,0,0,.52-.36,10,10,0,0,1,1,2.42,13.52,13.52,0,0,1,.47,3.1,10.37,10.37,0,0,0-1.21.34,1.12,1.12,0,0,0-.45,1.72,4.92,4.92,0,0,0,1.49,1.05,16.82,16.82,0,0,1-.91,3.4c-.12,0-.25,0-.37.06s-.52.12-.78.19a2.32,2.32,0,0,0-.44.16,1.15,1.15,0,0,0-.67.88,1.13,1.13,0,0,0,.42,1,6.1,6.1,0,0,0,.54.34,7.93,7.93,0,0,1-2.87,2.89,31.08,31.08,0,0,1-3.05-1.61c.22-.29.43-.58.63-.88a1.67,1.67,0,0,0,.31-1.14,1.54,1.54,0,0,0-.58-1,1.57,1.57,0,0,0-1.14-.31,1.53,1.53,0,0,0-1,.59c-.25.36-.51.69-.77,1a18.88,18.88,0,0,1-3.68-3.58l.11,0a11.74,11.74,0,0,1,2-.34,1.54,1.54,0,1,0-.4-3.05Z" style="fill:#fff;opacity:0.5;isolation:isolate"></path><path d="M133.4,341a9.39,9.39,0,0,1,2-1.07,5.37,5.37,0,0,0-.79-1.47c-3.06-3.9-4.45,0-6.82.06a4.09,4.09,0,0,0-3,1.26,6.74,6.74,0,0,1,.87.38.79.79,0,0,1,.22,1.2,2.29,2.29,0,0,1-1.18.77,3,3,0,0,1-.43,0,6.76,6.76,0,0,0,.54,1.71,10,10,0,0,0,1.11,1.83,7.91,7.91,0,0,1,.79-.35.77.77,0,0,1,1,.7,3.5,3.5,0,0,1-.33,1.21,11.13,11.13,0,0,0,2,1.38l.22-.13c.16-.09.33-.17.49-.24l.3-.11a.76.76,0,0,1,.74.17.75.75,0,0,1,.24.73,2.47,2.47,0,0,1-.14.41,5.51,5.51,0,0,0,2.78.27,22.05,22.05,0,0,0,.9-2.19l-.72-.18a1.18,1.18,0,0,1-.66-.47,1,1,0,0,1-.15-.79,1.09,1.09,0,0,1,.47-.66,1,1,0,0,1,.79-.14l.86.21a13.14,13.14,0,0,0,.37-3.5l-.08,0a10,10,0,0,0-1.22.72,1.05,1.05,0,0,1-1.45-.32A1.08,1.08,0,0,1,133.4,341Z" style="fill:#407BFF"></path><path d="M133.4,341a9.39,9.39,0,0,1,2-1.07,5.37,5.37,0,0,0-.79-1.47c-3.06-3.9-4.45,0-6.82.06a4.09,4.09,0,0,0-3,1.26,6.74,6.74,0,0,1,.87.38.79.79,0,0,1,.22,1.2,2.29,2.29,0,0,1-1.18.77,3,3,0,0,1-.43,0,6.76,6.76,0,0,0,.54,1.71,10,10,0,0,0,1.11,1.83,7.91,7.91,0,0,1,.79-.35.77.77,0,0,1,1,.7,3.5,3.5,0,0,1-.33,1.21,11.13,11.13,0,0,0,2,1.38l.22-.13c.16-.09.33-.17.49-.24l.3-.11a.76.76,0,0,1,.74.17.75.75,0,0,1,.24.73,2.47,2.47,0,0,1-.14.41,5.51,5.51,0,0,0,2.78.27,22.05,22.05,0,0,0,.9-2.19l-.72-.18a1.18,1.18,0,0,1-.66-.47,1,1,0,0,1-.15-.79,1.09,1.09,0,0,1,.47-.66,1,1,0,0,1,.79-.14l.86.21a13.14,13.14,0,0,0,.37-3.5l-.08,0a10,10,0,0,0-1.22.72,1.05,1.05,0,0,1-1.45-.32A1.08,1.08,0,0,1,133.4,341Z" style="fill:#fff;opacity:0.30000000000000004;isolation:isolate"></path><path d="M104.13,348.22c-.21,1.47,3.77,2.43,7,3-.26,2.67-2,5.36-4.49,7.88-3.09-1.74-7.49-4-8.3-3.47s3.62,3.53,6.44,5.24a57.06,57.06,0,0,1-6.39,4.84c-1.38-1.29-3-2.43-4-1.81s-.73,2.63-.24,4.42c-3.36,2-5.87,3.15-5.87,3.15a67.94,67.94,0,0,1-2.24-9.53c.17-.34.34-.68.49-1,.54-1.25,0-1.79-.88-2a32.91,32.91,0,0,1,0-6.87c3.8-.79,8.41-2.27,6.68-4.55-1-1.37-3-1.53-4.94-1.18a8.61,8.61,0,0,1,.94-1.28c6.92-7.62,11.74,0,11.74,0,4-3.35,9.66-2.44,10.88,2.79C108.7,347.26,104.39,346.4,104.13,348.22Z" style="fill:#407BFF"></path><path d="M104.13,348.22c-.21,1.47,3.77,2.43,7,3-.26,2.67-2,5.36-4.49,7.88-3.09-1.74-7.49-4-8.3-3.47s3.62,3.53,6.44,5.24a57.06,57.06,0,0,1-6.39,4.84c-1.38-1.29-3-2.43-4-1.81s-.73,2.63-.24,4.42c-3.36,2-5.87,3.15-5.87,3.15a67.94,67.94,0,0,1-2.24-9.53c.17-.34.34-.68.49-1,.54-1.25,0-1.79-.88-2a32.91,32.91,0,0,1,0-6.87c3.8-.79,8.41-2.27,6.68-4.55-1-1.37-3-1.53-4.94-1.18a8.61,8.61,0,0,1,.94-1.28c6.92-7.62,11.74,0,11.74,0,4-3.35,9.66-2.44,10.88,2.79C108.7,347.26,104.39,346.4,104.13,348.22Z" style="fill:#fff;opacity:0.5;isolation:isolate"></path></g><g id="freepik--Device--inject-21"><rect x="152.82" y="127.57" width="160.46" height="288.61" rx="9.61" style="fill:#407BFF"></rect><rect x="152.82" y="127.57" width="160.46" height="288.61" rx="9.61" style="fill:#fff;opacity:0.2;isolation:isolate"></rect><path d="M307.87,137.24V406a3.94,3.94,0,0,1-4,3.93H161.8a3.51,3.51,0,0,1-3.56-3.6V136.92a3.17,3.17,0,0,1,3-3.3h35.52a2.51,2.51,0,0,1,2.29,1.6l1.47,3.62a2.48,2.48,0,0,0,2.28,1.58h60.48a2.47,2.47,0,0,0,2.28-1.56l1.47-3.64a2.51,2.51,0,0,1,2.29-1.6h35A3.6,3.6,0,0,1,307.87,137.24Z" style="fill:#263238"></path><path d="M300.12,133.62C286.88,170.29,243.81,271,158.24,312.08V136.92a3.17,3.17,0,0,1,3-3.3h35.52a2.51,2.51,0,0,1,2.29,1.6l1.47,3.62a2.48,2.48,0,0,0,2.28,1.58h60.48a2.47,2.47,0,0,0,2.28-1.56l1.47-3.64a2.51,2.51,0,0,1,2.29-1.6Z" style="fill:#fff;opacity:0.1"></path><path d="M307.87,265.38V406a3.94,3.94,0,0,1-4,3.93H161.8a3.51,3.51,0,0,1-3.56-3.6V342.41C197.77,290.37,265.7,271.93,307.87,265.38Z" style="fill:#fff;opacity:0.1"></path><path d="M233,134a2.06,2.06,0,1,1-2.06-2.05A2.06,2.06,0,0,1,233,134Z" style="fill:#fff;opacity:0.6000000000000001;isolation:isolate"></path><path d="M237.18,134a1.32,1.32,0,1,1-1.31-1.31A1.32,1.32,0,0,1,237.18,134Z" style="fill:#fff;opacity:0.6000000000000001;isolation:isolate"></path><rect x="174.73" y="141.99" width="1.85" height="2.46" transform="translate(351.3 286.44) rotate(180)" style="fill:#fff;opacity:0.6000000000000001;isolation:isolate"></rect><rect x="171.71" y="141.17" width="1.85" height="3.29" transform="translate(345.28 285.62) rotate(180)" style="fill:#fff;opacity:0.6000000000000001;isolation:isolate"></rect><rect x="168.7" y="140.34" width="1.85" height="4.11" transform="translate(339.25 284.8) rotate(180)" style="fill:#fff;opacity:0.6000000000000001;isolation:isolate"></rect><rect x="165.69" y="139.52" width="1.85" height="4.93" transform="translate(333.23 283.97) rotate(180)" style="fill:#fff;opacity:0.6000000000000001;isolation:isolate"></rect><rect x="289.84" y="141.09" width="1.1" height="2.46" style="fill:#fff;opacity:0.6000000000000001;isolation:isolate"></rect><rect x="291.68" y="140.19" width="8.73" height="4.26" transform="translate(592.1 284.64) rotate(180)" style="fill:#fff;opacity:0.6000000000000001;isolation:isolate"></rect><path d="M166,183.27a2.38,2.38,0,0,1,2.5-2.41,2.34,2.34,0,0,1,1.79.73l-.44.43a1.7,1.7,0,0,0-1.32-.56,1.81,1.81,0,1,0,0,3.62,1.71,1.71,0,0,0,1.32-.57l.44.43a2.35,2.35,0,0,1-1.8.74A2.39,2.39,0,0,1,166,183.27Z" style="fill:#fff"></path><path d="M173.08,182v.63h-.14a1.07,1.07,0,0,0-1.13,1.21v1.77h-.64v-3.56h.61v.59A1.38,1.38,0,0,1,173.08,182Z" style="fill:#fff"></path><path d="M177.05,184.05h-2.89a1.21,1.21,0,0,0,1.29,1,1.32,1.32,0,0,0,1-.43l.36.41a1.95,1.95,0,0,1-3.33-1.24A1.75,1.75,0,0,1,175.3,182a1.73,1.73,0,0,1,1.77,1.84A1.37,1.37,0,0,1,177.05,184.05Zm-2.89-.46h2.29a1.15,1.15,0,0,0-2.29,0Z" style="fill:#fff"></path><path d="M181.32,180.63v5h-.62v-.56a1.5,1.5,0,0,1-1.27.6,1.82,1.82,0,0,1,0-3.64,1.53,1.53,0,0,1,1.25.57v-2Zm-.64,3.21a1.2,1.2,0,1,0-2.4,0,1.2,1.2,0,1,0,2.4,0Z" style="fill:#fff"></path><path d="M182.43,181a.43.43,0,0,1,.44-.42.42.42,0,0,1,.44.41.43.43,0,0,1-.44.43A.42.42,0,0,1,182.43,181Zm.11,1.11h.65v3.56h-.65Z" style="fill:#fff"></path><path d="M186.43,185.41a1.22,1.22,0,0,1-.78.25,1,1,0,0,1-1.13-1.11v-2h-.61v-.53h.61v-.78h.64v.78h1v.53h-1v1.93a.53.53,0,0,0,.56.6.78.78,0,0,0,.5-.17Z" style="fill:#fff"></path><rect x="258.7" y="194.82" width="41.81" height="13.37" rx="2.04" style="fill:#fff"></rect><path d="M266.63,199.09h-2v-.73h4.84v.73h-2v5.12h-.83Z" style="fill:#263238"></path><path d="M269.39,202a2.31,2.31,0,1,1,2.31,2.26A2.2,2.2,0,0,1,269.39,202Zm3.8,0a1.5,1.5,0,1,0-1.49,1.56A1.46,1.46,0,0,0,273.19,202Z" style="fill:#263238"></path><path d="M279.7,202a2.15,2.15,0,0,1-2.24,2.26,1.89,1.89,0,0,1-1.55-.72v2.29h-.8v-6.05h.77v.7a1.9,1.9,0,0,1,1.58-.74A2.15,2.15,0,0,1,279.7,202Zm-.81,0a1.5,1.5,0,1,0-1.5,1.56A1.47,1.47,0,0,0,278.89,202Z" style="fill:#263238"></path><path d="M283.13,201.69v-3.33H284v3.29c0,1.3.6,1.88,1.65,1.88s1.65-.58,1.65-1.88v-3.29h.82v3.33a2.48,2.48,0,1,1-4.95,0Z" style="fill:#263238"></path><path d="M294.26,202a2.15,2.15,0,0,1-2.24,2.26,1.89,1.89,0,0,1-1.55-.72v2.29h-.8v-6.05h.77v.7a1.9,1.9,0,0,1,1.58-.74A2.15,2.15,0,0,1,294.26,202Zm-.81,0a1.49,1.49,0,1,0-1.5,1.56A1.47,1.47,0,0,0,293.45,202Z" style="fill:#263238"></path><path d="M200.5,214.22H165.69a.5.5,0,0,1-.5-.5.5.5,0,0,1,.5-.5H200.5a.5.5,0,0,1,.5.5A.5.5,0,0,1,200.5,214.22Z" style="fill:#fff"></path><path d="M177.49,218.35h-11.8a.5.5,0,0,1-.5-.5.5.5,0,0,1,.5-.5h11.8a.5.5,0,0,1,.5.5A.5.5,0,0,1,177.49,218.35Z" style="fill:#fff"></path><rect x="158.24" y="150.2" width="149.63" height="23.74" style="fill:#fff;opacity:0.2"></rect><path d="M177.87,196.63V205h-1.18v-7.35h-1.9v-1.05Z" style="fill:#fff"></path><path d="M185.46,202.56c0,1.41-1.05,2.56-3.18,2.56a4.71,4.71,0,0,1-3.08-1l.55-.94a3.81,3.81,0,0,0,2.53.9c1.26,0,2-.58,2-1.49s-.64-1.46-2.08-1.46h-.67v-.84l2.11-2.59h-4v-1.05h5.54v.82l-2.19,2.71C184.61,200.31,185.46,201.26,185.46,202.56Z" style="fill:#fff"></path><path d="M186.58,200.83c0-2.73,1.46-4.29,3.43-4.29s3.41,1.56,3.41,4.29-1.46,4.29-3.41,4.29S186.58,203.56,186.58,200.83Zm5.64,0c0-2.15-.91-3.23-2.21-3.23s-2.24,1.08-2.24,3.23.92,3.23,2.24,3.23S192.22,203,192.22,200.83Z" style="fill:#fff"></path><path d="M168.41,201.54v.88h-.5v-.88a3.17,3.17,0,0,1-1.9-.69l.29-.61a2.72,2.72,0,0,0,1.61.63v-1.82c-.86-.21-1.76-.48-1.76-1.55,0-.77.55-1.44,1.76-1.55v-.89h.5V196a3.1,3.1,0,0,1,1.59.47l-.25.63a2.91,2.91,0,0,0-1.34-.44v1.83c.88.22,1.82.47,1.82,1.55C170.23,200.76,169.65,201.43,168.41,201.54Zm-.5-3.23v-1.69c-.69.09-1,.44-1,.85S167.35,198.16,167.91,198.31Zm1.55,1.72c0-.5-.47-.69-1.05-.85v1.68C169.14,200.79,169.46,200.46,169.46,200Z" style="fill:#fff"></path><path d="M249,206.79a4.87,4.87,0,1,1,0-9.73.25.25,0,0,1,0,.5,4.37,4.37,0,1,0,4.36,4.36.25.25,0,1,1,.5,0A4.87,4.87,0,0,1,249,206.79Z" style="fill:#fff"></path><path d="M248.64,198.39a.26.26,0,0,1-.18-.07.26.26,0,0,1,0-.35l.59-.59-.64-.74a.26.26,0,0,1,0-.36.25.25,0,0,1,.35,0l.79.92a.25.25,0,0,1,0,.34l-.74.75A.26.26,0,0,1,248.64,198.39Z" style="fill:#fff"></path><rect x="165.15" y="231.83" width="135.81" height="93.96" style="fill:#fff;opacity:0.2"></rect><path d="M297.92,165.25l.59.49,1.06-1.05-.5-.6a3.87,3.87,0,0,0,.57-1.37l.77-.08v-1.49l-.77-.07a4,4,0,0,0-.57-1.38l.5-.59-1.06-1.05-.59.49a4,4,0,0,0-1.38-.57l-.07-.77H295l-.08.77a3.87,3.87,0,0,0-1.37.57l-.6-.49-1.05,1.05.49.59a4,4,0,0,0-.57,1.38l-.77.07v1.49l.77.08a3.87,3.87,0,0,0,.57,1.37l-.49.6,1.05,1.05.6-.49a3.87,3.87,0,0,0,1.37.57l.08.77h1.49l.07-.77A4,4,0,0,0,297.92,165.25Zm-4.22-3.35a2,2,0,1,1,2,2A2,2,0,0,1,293.7,161.9Z" style="fill:#f5f5f5"></path><polygon points="176.54 162.73 171.12 157.31 165.69 162.73 167.35 162.73 167.35 166.49 174.88 166.49 174.88 162.73 176.54 162.73" style="fill:#fff"></polygon><rect x="173.59" y="266.1" width="55.52" height="22.5" rx="2.94" style="fill:#fff;opacity:0.5"></rect><path d="M201.11,272.13v11.52h-1.63V273.56h-2.6v-1.43Z" style="fill:#263238"></path><path d="M203.63,277.89c0-3.75,2-5.89,4.71-5.89s4.69,2.14,4.69,5.89-2,5.9-4.69,5.9S203.63,281.65,203.63,277.89Zm7.76,0c0-2.95-1.26-4.43-3-4.43s-3.06,1.48-3.06,4.43,1.25,4.43,3.06,4.43S211.39,280.84,211.39,277.89Z" style="fill:#263238"></path><path d="M214.61,277.89c0-3.75,2-5.89,4.71-5.89s4.7,2.14,4.7,5.89-2,5.9-4.7,5.9S214.61,281.65,214.61,277.89Zm7.76,0c0-2.95-1.25-4.43-3.05-4.43s-3.06,1.48-3.06,4.43,1.25,4.43,3.06,4.43S222.37,280.84,222.37,277.89Z" style="fill:#263238"></path><path d="M180.12,277.55v1h-.58v-1a3.75,3.75,0,0,1-2.24-.8l.34-.72a3.2,3.2,0,0,0,1.9.74v-2.14c-1-.25-2.08-.57-2.08-1.82,0-.91.65-1.7,2.08-1.82v-1.05h.58v1a3.74,3.74,0,0,1,1.87.56l-.3.74a3.29,3.29,0,0,0-1.57-.52v2.15c1,.25,2.14.56,2.14,1.82C182.26,276.64,181.58,277.43,180.12,277.55Zm-.58-3.79v-2c-.82.1-1.18.52-1.18,1S178.87,273.58,179.54,273.76Zm1.82,2c0-.59-.56-.82-1.24-1v2C181,276.67,181.36,276.28,181.36,275.78Z" style="fill:#263238"></path><rect x="235.94" y="266.24" width="55.52" height="22.5" rx="2.94" style="fill:#fff;opacity:0.5"></rect><path d="M266.16,282.36v1.43h-8.28v-1.12l4.69-4.53c1.22-1.18,1.45-1.91,1.45-2.63,0-1.19-.84-1.91-2.45-1.91a3.61,3.61,0,0,0-2.95,1.25l-1.12-1a5.3,5.3,0,0,1,4.22-1.75c2.4,0,3.95,1.24,3.95,3.21,0,1.12-.33,2.13-1.9,3.62l-3.52,3.4Z" style="fill:#263238"></path><path d="M275.6,280.33c0,2-1.42,3.59-4.37,3.59a6.62,6.62,0,0,1-4.23-1.4l.76-1.3a5.15,5.15,0,0,0,3.46,1.24c1.74,0,2.73-.81,2.73-2.06s-.82-2.11-3.49-2.11h-2.62l.61-6H275v1.44h-5.12l-.32,3.16h1.29C274.25,276.86,275.6,278.29,275.6,280.33Z" style="fill:#263238"></path><path d="M277,278c0-3.76,2-5.9,4.71-5.9s4.7,2.14,4.7,5.9-2,5.89-4.7,5.89S277,281.78,277,278Zm7.76,0c0-2.95-1.25-4.43-3.05-4.43s-3.06,1.48-3.06,4.43,1.25,4.43,3.06,4.43S284.72,281,284.72,278Z" style="fill:#263238"></path><path d="M242.48,277.68v1h-.59v-1a3.63,3.63,0,0,1-2.24-.8l.34-.71a3.2,3.2,0,0,0,1.9.73v-2.13c-1-.25-2.08-.57-2.08-1.82,0-.92.65-1.71,2.08-1.83v-1.05h.59v1a3.74,3.74,0,0,1,1.86.56l-.3.74a3.27,3.27,0,0,0-1.56-.51V274c1,.26,2.13.56,2.13,1.82C244.61,276.77,243.93,277.56,242.48,277.68Zm-.59-3.79v-2c-.82.1-1.18.51-1.18,1S241.22,273.72,241.89,273.89Zm1.82,2c0-.59-.55-.82-1.23-1v2C243.33,276.81,243.71,276.41,243.71,275.92Z" style="fill:#263238"></path><rect x="173.59" y="293.09" width="55.52" height="22.5" rx="2.94" style="fill:#fff;opacity:0.5"></rect><path d="M202.26,307.19c0,2-1.41,3.59-4.36,3.59a6.62,6.62,0,0,1-4.23-1.4l.76-1.3a5.17,5.17,0,0,0,3.45,1.23c1.75,0,2.74-.81,2.74-2.06s-.83-2.1-3.49-2.1h-2.62l.61-6h6.5v1.43H196.5l-.31,3.16h1.28C200.91,303.71,202.26,305.15,202.26,307.19Z" style="fill:#263238"></path><path d="M203.63,304.88c0-3.75,2-5.89,4.71-5.89s4.69,2.14,4.69,5.89-2,5.9-4.69,5.9S203.63,308.64,203.63,304.88Zm7.76,0c0-2.95-1.26-4.43-3-4.43s-3.06,1.48-3.06,4.43,1.25,4.43,3.06,4.43S211.39,307.83,211.39,304.88Z" style="fill:#263238"></path><path d="M214.61,304.88c0-3.75,2-5.89,4.71-5.89s4.7,2.14,4.7,5.89-2,5.9-4.7,5.9S214.61,308.64,214.61,304.88Zm7.76,0c0-2.95-1.25-4.43-3.05-4.43s-3.06,1.48-3.06,4.43,1.25,4.43,3.06,4.43S222.37,307.83,222.37,304.88Z" style="fill:#263238"></path><path d="M180.12,304.54v1h-.58v-1a3.75,3.75,0,0,1-2.24-.8l.34-.72a3.2,3.2,0,0,0,1.9.74v-2.14c-1-.25-2.08-.57-2.08-1.82,0-.91.65-1.7,2.08-1.82v-1.05h.58v1a3.74,3.74,0,0,1,1.87.56l-.3.74a3.29,3.29,0,0,0-1.57-.52v2.15c1,.25,2.14.56,2.14,1.82C182.26,303.63,181.58,304.42,180.12,304.54Zm-.58-3.79v-2c-.82.1-1.18.52-1.18,1S178.87,300.57,179.54,300.75Zm1.82,2c0-.59-.56-.82-1.24-1v2C181,303.67,181.36,303.27,181.36,302.77Z" style="fill:#263238"></path><rect x="235.94" y="293.23" width="55.52" height="22.5" rx="2.94" style="fill:#fff;opacity:0.5"></rect><path d="M252.48,299.25v11.53h-1.63V300.69h-2.6v-1.44Z" style="fill:#263238"></path><path d="M255,305c0-3.76,2-5.9,4.71-5.9s4.69,2.14,4.69,5.9-2,5.89-4.69,5.89S255,308.77,255,305Zm7.75,0c0-2.95-1.25-4.43-3-4.43s-3.06,1.48-3.06,4.43,1.25,4.43,3.06,4.43S262.75,308,262.75,305Z" style="fill:#263238"></path><path d="M266,305c0-3.76,2-5.9,4.71-5.9s4.69,2.14,4.69,5.9-2,5.89-4.69,5.89S266,308.77,266,305Zm7.76,0c0-2.95-1.25-4.43-3.05-4.43s-3.06,1.48-3.06,4.43,1.25,4.43,3.06,4.43S273.74,308,273.74,305Z" style="fill:#263238"></path><path d="M277,305c0-3.76,2-5.9,4.7-5.9s4.7,2.14,4.7,5.9-2,5.89-4.7,5.89S277,308.77,277,305Zm7.75,0c0-2.95-1.25-4.43-3.05-4.43s-3.06,1.48-3.06,4.43,1.25,4.43,3.06,4.43S284.72,308,284.72,305Z" style="fill:#263238"></path><path d="M242.48,304.67v1h-.59v-1a3.63,3.63,0,0,1-2.24-.8l.34-.71a3.2,3.2,0,0,0,1.9.73v-2.13c-1-.25-2.08-.57-2.08-1.82,0-.92.65-1.71,2.08-1.83v-1.05h.59v1a3.64,3.64,0,0,1,1.86.57l-.3.73a3.27,3.27,0,0,0-1.56-.51V301c1,.26,2.13.56,2.13,1.82C244.61,303.76,243.93,304.55,242.48,304.67Zm-.59-3.79v-2c-.82.1-1.18.51-1.18,1S241.22,300.71,241.89,300.88Zm1.82,2c0-.59-.55-.82-1.23-1v2C243.33,303.8,243.71,303.4,243.71,302.91Z" style="fill:#263238"></path><rect x="173.59" y="239.11" width="55.52" height="22.5" rx="2.94" style="fill:#fff;opacity:0.5"></rect><path d="M214.79,255.23v1.43h-8.28v-1.12l4.7-4.52c1.21-1.19,1.44-1.91,1.44-2.64,0-1.18-.84-1.91-2.45-1.91a3.65,3.65,0,0,0-2.95,1.25l-1.12-1a5.33,5.33,0,0,1,4.22-1.74c2.4,0,4,1.23,4,3.21,0,1.12-.33,2.12-1.89,3.62l-3.53,3.39Z" style="fill:#263238"></path><path d="M224.23,253.21c0,2-1.42,3.58-4.36,3.58a6.59,6.59,0,0,1-4.23-1.39l.75-1.31a5.17,5.17,0,0,0,3.46,1.24c1.75,0,2.73-.81,2.73-2.06s-.82-2.11-3.49-2.11h-2.61l.6-6h6.51v1.43h-5.12l-.32,3.16h1.29C222.88,249.73,224.23,251.16,224.23,253.21Z" style="fill:#263238"></path><path d="M180.12,250.56v1h-.58v-1a3.75,3.75,0,0,1-2.24-.8l.34-.72a3.27,3.27,0,0,0,1.9.74v-2.14c-1-.25-2.08-.57-2.08-1.82,0-.91.65-1.7,2.08-1.82V243h.58v1a3.74,3.74,0,0,1,1.87.56l-.3.74a3.29,3.29,0,0,0-1.57-.52v2.14c1,.26,2.14.57,2.14,1.83C182.26,249.65,181.58,250.44,180.12,250.56Zm-.58-3.79v-2c-.82.1-1.18.51-1.18,1S178.87,246.59,179.54,246.77Zm1.82,2c0-.59-.56-.82-1.24-1v2C181,249.68,181.36,249.29,181.36,248.79Z" style="fill:#263238"></path><rect x="235.94" y="239.25" width="55.52" height="22.5" rx="2.94" style="fill:#fff;opacity:0.5"></rect><path d="M275.6,253.34c0,2-1.42,3.59-4.37,3.59a6.62,6.62,0,0,1-4.23-1.4l.76-1.3a5.2,5.2,0,0,0,3.46,1.23c1.74,0,2.73-.8,2.73-2.05s-.82-2.11-3.49-2.11h-2.62l.61-6H275v1.44h-5.12l-.32,3.16h1.29C274.25,249.87,275.6,251.3,275.6,253.34Z" style="fill:#263238"></path><path d="M277,251c0-3.76,2-5.9,4.71-5.9s4.7,2.14,4.7,5.9-2,5.89-4.7,5.89S277,254.79,277,251Zm7.76,0c0-2.95-1.25-4.43-3.05-4.43s-3.06,1.48-3.06,4.43,1.25,4.42,3.06,4.42S284.72,254,284.72,251Z" style="fill:#263238"></path><path d="M242.48,250.69v1h-.59v-1a3.69,3.69,0,0,1-2.24-.8l.34-.72a3.2,3.2,0,0,0,1.9.74v-2.13c-1-.25-2.08-.57-2.08-1.83,0-.91.65-1.7,2.08-1.82v-1h.59v1a3.74,3.74,0,0,1,1.86.56l-.3.74a3.27,3.27,0,0,0-1.56-.51v2.14c1,.26,2.13.56,2.13,1.82C244.61,249.78,243.93,250.57,242.48,250.69Zm-.59-3.79v-2c-.82.11-1.18.52-1.18,1S241.22,246.73,241.89,246.9Zm1.82,2c0-.59-.55-.82-1.23-1v2C243.33,249.82,243.71,249.42,243.71,248.93Z" style="fill:#263238"></path><path d="M170.2,342.66c0,1-.74,1.64-2,1.64h-1.16v1.42h-.67V341h1.83C169.46,341,170.2,341.63,170.2,342.66Zm-.67,0c0-.68-.45-1.06-1.32-1.06h-1.14v2.11h1.14C169.08,343.71,169.53,343.33,169.53,342.66Z" style="fill:#fff"></path><path d="M173.88,343.57v2.15h-.61v-.47a1.3,1.3,0,0,1-1.17.51c-.81,0-1.32-.43-1.32-1.05s.37-1,1.44-1h1v-.13c0-.54-.32-.86-1-.86a1.8,1.8,0,0,0-1.13.39l-.27-.49a2.42,2.42,0,0,1,1.48-.46A1.33,1.33,0,0,1,173.88,343.57Zm-.64,1.06v-.49h-1c-.64,0-.82.24-.82.55s.3.58.79.58A1,1,0,0,0,173.24,344.63Z" style="fill:#fff"></path><path d="M178.17,342.16l-1.73,3.92c-.32.75-.73,1-1.27,1a1.31,1.31,0,0,1-.92-.33l.28-.49a.89.89,0,0,0,.64.27c.31,0,.5-.14.68-.55l.11-.25-1.57-3.56h.67L176.3,345l1.24-2.85Z" style="fill:#fff"></path><path d="M184.69,343.67v2.05h-.64v-2c0-.71-.34-1.05-.92-1.05s-1.07.41-1.07,1.19v1.83h-.65v-2c0-.71-.34-1.05-.92-1.05s-1.07.41-1.07,1.19v1.83h-.65v-3.56h.62v.53a1.46,1.46,0,0,1,1.23-.57,1.32,1.32,0,0,1,1.24.66,1.62,1.62,0,0,1,1.37-.66A1.37,1.37,0,0,1,184.69,343.67Z" style="fill:#fff"></path><path d="M189.11,344.16h-2.89a1.21,1.21,0,0,0,1.29,1,1.32,1.32,0,0,0,1-.43l.36.42a1.83,1.83,0,0,1-1.41.57,1.79,1.79,0,0,1-1.92-1.82,1.75,1.75,0,0,1,1.79-1.82,1.72,1.72,0,0,1,1.76,1.84A1.48,1.48,0,0,1,189.11,344.16Zm-2.89-.47h2.28a1.15,1.15,0,0,0-2.28,0Z" style="fill:#fff"></path><path d="M193.4,343.67v2.05h-.64v-2c0-.71-.35-1.05-1-1.05a1.06,1.06,0,0,0-1.13,1.19v1.83H190v-3.56h.62v.54a1.51,1.51,0,0,1,1.28-.58A1.38,1.38,0,0,1,193.4,343.67Z" style="fill:#fff"></path><path d="M196.6,345.51a1.2,1.2,0,0,1-.78.25,1,1,0,0,1-1.13-1.11v-2h-.6v-.53h.6v-.78h.65v.78h1v.53h-1v1.93a.53.53,0,0,0,.56.6.8.8,0,0,0,.5-.17Z" style="fill:#fff"></path><path d="M205.11,343.67v2.05h-.64v-2c0-.71-.34-1.05-.93-1.05a1,1,0,0,0-1.07,1.19v1.83h-.64v-2c0-.71-.34-1.05-.92-1.05s-1.07.41-1.07,1.19v1.83h-.65v-3.56h.62v.53a1.45,1.45,0,0,1,1.23-.57,1.33,1.33,0,0,1,1.24.66,1.62,1.62,0,0,1,1.37-.66A1.37,1.37,0,0,1,205.11,343.67Z" style="fill:#fff"></path><path d="M209.53,344.16h-2.9a1.22,1.22,0,0,0,1.3,1,1.35,1.35,0,0,0,1-.43l.35.42a1.95,1.95,0,0,1-3.32-1.25,1.75,1.75,0,0,1,1.79-1.82,1.72,1.72,0,0,1,1.76,1.84A1.48,1.48,0,0,1,209.53,344.16Zm-2.9-.47h2.29a1.1,1.1,0,0,0-1.14-1A1.12,1.12,0,0,0,206.63,343.69Z" style="fill:#fff"></path><path d="M212.44,345.51a1.22,1.22,0,0,1-.78.25,1,1,0,0,1-1.13-1.11v-2h-.61v-.53h.61v-.78h.64v.78h1v.53h-1v1.93a.53.53,0,0,0,.56.6.82.82,0,0,0,.51-.17Z" style="fill:#fff"></path><path d="M216.6,343.67v2.05H216v-2c0-.71-.35-1.05-1-1.05a1.06,1.06,0,0,0-1.13,1.19v1.83h-.64v-5h.64v1.93a1.57,1.57,0,0,1,1.26-.54A1.38,1.38,0,0,1,216.6,343.67Z" style="fill:#fff"></path><path d="M217.49,343.94a1.86,1.86,0,1,1,1.86,1.82A1.78,1.78,0,0,1,217.49,343.94Zm3,0a1.2,1.2,0,1,0-2.4,0,1.2,1.2,0,1,0,2.4,0Z" style="fill:#fff"></path><path d="M225.45,340.73v5h-.62v-.56a1.5,1.5,0,0,1-1.27.6,1.82,1.82,0,0,1,0-3.64,1.51,1.51,0,0,1,1.25.58v-2Zm-.64,3.21a1.2,1.2,0,1,0-2.4,0,1.2,1.2,0,1,0,2.4,0Z" style="fill:#fff"></path><rect x="165.15" y="352.9" width="135.81" height="41.47" style="fill:#fff;opacity:0.2"></rect><rect x="173.59" y="362.13" width="55.52" height="22.5" rx="2.94" style="fill:#fff;opacity:0.5"></rect><rect x="177.79" y="366.4" width="7.65" height="3.36" style="fill:#fff"></rect><rect x="187.94" y="366.4" width="7.65" height="3.36" style="fill:#fff"></rect><rect x="216.69" y="366.4" width="7.65" height="3.36" style="fill:#fff"></rect><rect x="198.09" y="366.4" width="16.03" height="3.36" style="fill:#fff"></rect><path d="M224.34,378.2a2.84,2.84,0,1,1-2.84-2.83A2.84,2.84,0,0,1,224.34,378.2Z" style="fill:#263238"></path><path d="M221,378.2a2.84,2.84,0,1,1-2.84-2.83A2.84,2.84,0,0,1,221,378.2Z" style="fill:#fff"></path><rect x="236.63" y="362.13" width="55.52" height="22.5" rx="2.94" style="fill:#fff;opacity:0.5"></rect><rect x="241.81" y="366.4" width="7.65" height="3.36" style="fill:#fff"></rect><rect x="251.97" y="366.4" width="7.65" height="3.36" style="fill:#fff"></rect><rect x="280.71" y="366.4" width="7.65" height="3.36" style="fill:#fff"></rect><rect x="262.12" y="366.4" width="16.03" height="3.36" style="fill:#fff"></rect><rect x="280.24" y="375.37" width="8.12" height="5.67" rx="1.32" style="fill:#263238"></rect></g><g id="freepik--Character--inject-21"><path d="M374.9,282.63a.27.27,0,0,1-.2-.09c-.21-.29-5.27-7.08-4.27-11.15a3.41,3.41,0,0,1,1.95-2.34c5.61-2.68,12,8.28,12.28,8.75a.25.25,0,0,1-.44.25c-.06-.11-6.42-11-11.63-8.55a2.88,2.88,0,0,0-1.67,2c-.95,3.84,4.13,10.66,4.18,10.72a.24.24,0,0,1-.05.35A.21.21,0,0,1,374.9,282.63Z" style="fill:#263238"></path><polygon points="366.73 284.5 391.5 271.62 394.98 279.86 413.07 305.82 408.19 313.23 383.19 324.69 370.24 293.06 365.46 286.76 366.73 284.5" style="fill:#407BFF"></polygon><polygon points="366.73 284.5 391.5 271.62 394.98 279.86 413.07 305.82 408.19 313.23 383.19 324.69 370.24 293.06 365.46 286.76 366.73 284.5" style="fill:#fff;opacity:0.2"></polygon><polygon points="365.46 286.76 387.39 276.53 391.5 271.62 366.73 284.5 365.46 286.76" style="opacity:0.4;isolation:isolate"></polygon><polygon points="387.39 276.53 390.86 283.2 408.19 313.23 407.14 306.71 413.07 305.82 394.98 279.86 391.5 271.62 387.39 276.53" style="opacity:0.2;isolation:isolate"></polygon><polygon points="407.14 306.71 392.34 281.85 390.36 276.25 390.86 283.2 407.14 306.71" style="opacity:0.2;isolation:isolate"></polygon><path d="M373.25,284.16A.24.24,0,0,1,373,284c-.25-.43-6-10.6-1.31-14.66a3.12,3.12,0,0,1,3-.68c3.4,1,6.8,6.59,8.39,11.65a.25.25,0,0,1-.16.31.25.25,0,0,1-.32-.16c-1.78-5.66-5.24-10.52-8.05-11.32a2.65,2.65,0,0,0-2.59.58c-4.37,3.79,1.36,13.93,1.42,14a.25.25,0,0,1-.09.34Z" style="fill:#263238"></path><path d="M370.87,283a.25.25,0,0,1-.24-.18c-.1-.34-2.55-8.44-.23-11.93a3.39,3.39,0,0,1,2.62-1.54,3.25,3.25,0,0,1,.44,0c5.86,0,8.05,11.91,8.14,12.43a.26.26,0,0,1-.2.29.25.25,0,0,1-.29-.2c0-.13-2.31-12.57-8-12a2.9,2.9,0,0,0-2.26,1.33c-2.19,3.29.27,11.42.3,11.51a.24.24,0,0,1-.17.31Z" style="fill:#263238"></path><polygon points="362.46 281.99 390.14 278.28 390.61 287.21 398.82 317.78 391.71 323.09 364.31 325.39 362.86 291.24 360.51 283.69 362.46 281.99" style="fill:#407BFF"></polygon><polygon points="362.46 281.99 390.14 278.28 390.61 287.21 398.82 317.78 391.71 323.09 364.31 325.39 362.86 291.24 360.51 283.69 362.46 281.99" style="fill:#fff;opacity:0.7000000000000001"></polygon><polygon points="360.51 283.69 384.6 281.51 390.14 278.28 362.46 281.99 360.51 283.69" style="opacity:0.4;isolation:isolate"></polygon><polygon points="384.6 281.51 385.6 288.96 391.71 323.09 392.94 316.6 398.82 317.78 390.61 287.21 390.14 278.28 384.6 281.51" style="opacity:0.2;isolation:isolate"></polygon><polygon points="392.94 316.6 387.45 288.19 387.49 282.26 385.6 288.96 392.94 316.6" style="opacity:0.2;isolation:isolate"></polygon><path d="M368.79,283.9a.24.24,0,0,1-.24-.2c-.09-.49-2.05-12,3.74-14.24a3.13,3.13,0,0,1,3.09.4c2.88,2.06,4.17,8.51,3.95,13.8a.26.26,0,0,1-.26.24.24.24,0,0,1-.24-.26c.24-5.92-1.36-11.67-3.74-13.37a2.63,2.63,0,0,0-2.62-.34c-5.4,2.08-3.45,13.56-3.43,13.68a.25.25,0,0,1-.2.29Z" style="fill:#263238"></path><path d="M370.18,216c-.34,3.62-.79,7.23-1.29,10.84s-1,7.2-1.6,10.8l-.09-1.38,1.39,6.89c.46,2.29.87,4.6,1.3,6.9s.82,4.61,1.2,6.93.74,4.63,1.05,7L368,265c-.81-2.21-1.53-4.44-2.28-6.66s-1.44-4.47-2.13-6.7-1.38-4.48-2-6.73l-1.93-6.75-.15-.51.06-.86c.25-3.63.51-7.27.87-10.89s.7-7.24,1.18-10.85Z" style="fill:#e9b376"></path><path d="M367.11,206.57c4.32,2.5,2.86,16.31,2.86,16.31l-10.91,4.5s-3.58-10.73-1.22-17.64C359,206.29,362.86,204.12,367.11,206.57Z" style="fill:#407BFF"></path><path d="M371,262.13l6.08,7.13-6.84.64s-3.73-3-2-6.18Z" style="fill:#ebb376"></path><polygon points="376.54 272.71 372.61 275.5 370.19 269.9 377.02 269.26 376.54 272.71" style="fill:#ebb376"></polygon><path d="M367.11,206.57c4.32,2.5,2.86,16.31,2.86,16.31l-10.91,4.5s-3.58-10.73-1.22-17.64C359,206.29,362.86,204.12,367.11,206.57Z" style="fill:#fff;opacity:0.7000000000000001"></path><path d="M336.54,182.62c0,.57-.29,1-.67,1.07s-.7-.44-.7-1,.29-1,.67-1.07S336.54,182,336.54,182.62Z" style="fill:#263238"></path><path d="M336,181.63l-1.41-.35S335.34,182.34,336,181.63Z" style="fill:#263238"></path><path d="M336.06,183.2a16,16,0,0,1-2,3.77,2.54,2.54,0,0,0,2.08.3Z" style="fill:#d58745"></path><path d="M335.71,178.8a.3.3,0,0,0,.16,0,2.82,2.82,0,0,1,2.5.23.36.36,0,0,0,.48-.08.35.35,0,0,0-.08-.48,3.49,3.49,0,0,0-3.13-.31.34.34,0,0,0-.2.44A.34.34,0,0,0,335.71,178.8Z" style="fill:#263238"></path><path d="M353.36,190.37c-1.19,4.19-1.09,11.44,1.67,14.42,0,0-3.27,4-11.23,3.59-8.75-.48-3.83-4.52-3.83-4.52,4.87-.87,5-4.38,4.47-7.71Z" style="fill:#ebb376"></path><path d="M356,180.22c-.34,7.1-.33,10.11-3.89,13.9-5.36,5.69-14.09,4-15.89-3-1.63-6.3-.8-16.86,6.16-20A9.51,9.51,0,0,1,356,180.22Z" style="fill:#ebb376"></path><path d="M338.38,184.94a.11.11,0,0,1-.08,0c-6.12-4.55-4.22-10.38-3.11-12.68,2-4.08,5.85-6.95,8.5-6.25a.15.15,0,0,1-.08.28c-2.47-.64-6.29,2.2-8.16,6.1-1.07,2.23-2.92,7.89,3,12.31a.15.15,0,0,1,0,.21A.14.14,0,0,1,338.38,184.94Z" style="fill:#263238"></path><path d="M358.35,247c-5.67-.31-17.63-.85-29.25-1.48-3.46-42.21.45-40.2.45-40.2a59,59,0,0,1,7.08-1.35l.42-.05c1.95-.21,2.35-.21,4.92-.3,4.36.06,8.4.22,13.31.73l.94.1c.89.11,1.76.23,2.6.36.58.07,1.14.18,1.68.27l1.83.36c3.09.61,5.27,1.21,5.27,1.21C359.91,230.52,358.83,235.19,358.35,247Z" style="fill:#407BFF"></path><path d="M358.35,247c-5.67-.31-17.63-.85-29.25-1.48-3.46-42.21.45-40.2.45-40.2a59,59,0,0,1,7.08-1.35l.42-.05c1.95-.21,2.35-.21,4.92-.3,4.36.06,8.4.22,13.31.73l.94.1c.89.11,1.76.23,2.6.36.58.07,1.14.18,1.68.27l1.83.36c3.09.61,5.27,1.21,5.27,1.21C359.91,230.52,358.83,235.19,358.35,247Z" style="fill:#fff;opacity:0.7000000000000001"></path><path d="M340.17,283.79,334,307.89l-1.81,5.48,0,.05-3,9-.54,1.66-3.18,9.58L320.12,350c-.75,25-14.42,58.74-14.42,58.74l-4.86-1.33c1.78-24.48,6.59-54,10.67-76.17.64-3.47,1.26-6.75,1.85-9.81.29-1.46.56-2.85.82-4.2.47-2.4.91-4.62,1.32-6.63.72-3.54,1.32-6.42,1.75-8.49.5-2.37,5.32-18.44,5.32-18.44Z" style="fill:#ebb376"></path><path d="M348,407.54l-5-.48c-2.62-26.55-2.72-59.61-2.36-82.58.06-3.55.12-6.88.19-9.89,0-.16,0-.3,0-.45.15-6,.31-10.73.41-13.74.1-2.36.15-3.65.15-3.65l18.07,2-1.13,7.52-1.64,11-.32,2.16L355.27,327l-3,20.18C355.76,371.93,348,407.54,348,407.54Z" style="fill:#ebb376"></path><path d="M356.72,317.33l-15.87-2.74c0-.16,0-.3,0-.45.15-6,.31-10.73.41-13.74l17.09,5.89Z" style="opacity:0.2;isolation:isolate"></path><path d="M340.17,283.79,334,307.89l-1.81,5.48,0,.05-16.7-2.83c.72-3.54,1.32-6.42,1.75-8.49.5-2.37,5.32-18.44,5.32-18.44Z" style="opacity:0.2;isolation:isolate"></path><path d="M350.42,406.52c0-.63-7.76-.14-7.76-.14s-4.76,4.85-9.39,5.94-2,3.86,3.13,3.86h12.79C352.86,416.18,350.57,413.05,350.42,406.52Z" style="fill:#263238"></path><path d="M337.9,408.18a.76.76,0,0,1-.18-.83.81.81,0,0,1,.41-.52,3.17,3.17,0,0,1,1.74-.19c-.63-.34-1.18-.74-1.21-1.15s.16-.48.51-.65a1.17,1.17,0,0,1,1,0c1.05.44,1.7,2.24,1.73,2.32a.22.22,0,0,1,0,.16s0,0,0,0h0a.15.15,0,0,1-.06.05,9.62,9.62,0,0,1-3.21,1A1.11,1.11,0,0,1,337.9,408.18Zm.43-1a.44.44,0,0,0-.22.27c-.07.31,0,.39.05.41.37.3,1.79-.12,2.93-.61A5.12,5.12,0,0,0,338.33,407.18Zm1-2c-.11.05-.29.15-.28.26,0,.34,1.13.95,2.27,1.38a3.38,3.38,0,0,0-1.32-1.66.74.74,0,0,0-.32-.07A.76.76,0,0,0,339.35,405.21Z" style="fill:#407BFF"></path><path d="M307.08,406.52c0-.63-7.75-.14-7.75-.14s-4.76,4.85-9.39,5.94-2,3.86,3.13,3.86h12.79C309.53,416.18,307.24,413.05,307.08,406.52Z" style="fill:#263238"></path><path d="M294.57,408.18a.76.76,0,0,1-.19-.83.86.86,0,0,1,.42-.52,3.15,3.15,0,0,1,1.73-.19c-.63-.34-1.18-.74-1.2-1.15s.16-.48.51-.65a1.17,1.17,0,0,1,1,0c1.05.44,1.7,2.24,1.73,2.32a.22.22,0,0,1,0,.16l0,0h0a.18.18,0,0,1-.07.05,9.47,9.47,0,0,1-3.2,1A1.09,1.09,0,0,1,294.57,408.18Zm.43-1a.44.44,0,0,0-.22.27c-.08.31,0,.39.05.41.37.3,1.78-.12,2.92-.61A5.08,5.08,0,0,0,295,407.18Zm1-2c-.1.05-.28.15-.27.26,0,.34,1.12.95,2.27,1.38a3.4,3.4,0,0,0-1.33-1.66.7.7,0,0,0-.31-.07A.8.8,0,0,0,296,405.21Z" style="fill:#407BFF"></path><path d="M359.05,247s7.59,24.85,3.61,66.39l-40.09-5.66,2.2-16.61L318,306.62l-2.26-.45c6.08-29.78,11.57-43.29,11.57-43.29l1.83-17.36Z" style="fill:#407BFF"></path><path d="M332.37,214.09c-1.22,1.78-2.49,3.38-3.8,5s-2.71,3.22-4.17,4.79a42,42,0,0,1-5,4.6,15.79,15.79,0,0,1-1.68,1.12,8.62,8.62,0,0,1-2.66,1.07,5.68,5.68,0,0,1-1.35.11,5.59,5.59,0,0,1-1.2-.19A6.94,6.94,0,0,1,311,230a11,11,0,0,1-1.86-1.32,33.54,33.54,0,0,1-4.52-5.15c-1.26-1.73-2.44-3.46-3.54-5.24a118.62,118.62,0,0,1-6-10.87l3.66-2.26c2.48,3.17,5,6.35,7.51,9.43,1.28,1.53,2.55,3,3.86,4.47a27.88,27.88,0,0,0,3.86,3.7,3.61,3.61,0,0,0,.66.4s0,0-.13-.07A1.83,1.83,0,0,0,314,223a5.48,5.48,0,0,0-.6,0c-.32.08-.08,0,.11-.18s.5-.4.79-.66a41.27,41.27,0,0,0,3.72-4c1.25-1.45,2.48-3,3.67-4.55s2.43-3.15,3.6-4.66Z" style="fill:#e9b376"></path><path d="M300.27,207.38l-.28-6.61-5.71,1.44s-.78,6.44,3.82,6.89Z" style="fill:#ebb376"></path><polygon points="298.41 198.13 293.51 198.19 294.28 202.21 299.99 200.76 298.41 198.13" style="fill:#ebb376"></polygon><path d="M332.24,218.57a24.3,24.3,0,0,1-3.89,12c-.41-8.19-.42-13.72-.24-17.46C330.32,213.37,332.43,214.64,332.24,218.57Z" style="opacity:0.2"></path><path d="M329.82,205.25c-5.43,1.87-10.1,7.9-11.86,11.58l8.61,11.54s9.19-11.69,8.1-15.54C333.54,208.83,331.87,204.54,329.82,205.25Z" style="fill:#407BFF"></path><path d="M334.69,246.35l.09,3.24-5.51-.31c-.26,0-.47-.15-.47-.31l-.05-2.61c0-.18.24-.32.52-.3Z" style="fill:#263238"></path><polygon points="354.78 247.45 354.87 250.68 336.15 249.66 336.06 246.42 354.78 247.45" style="fill:#263238"></polygon><path d="M360,251l-3.78-.21-.09-3.24,2.82.16a.52.52,0,0,1,.46.24l1.1,2.66C360.62,250.79,360.36,251,360,251Z" style="fill:#263238"></path><path d="M329.82,205.25c-5.43,1.87-10.1,7.9-11.86,11.58l8.61,11.54s9.19-11.69,8.1-15.54C333.54,208.83,331.87,204.54,329.82,205.25Z" style="fill:#fff;opacity:0.7000000000000001"></path><path d="M345.78,165.48c-6.87,0-14.38,5.42-7.85,15.17s8.78,15.55,5.28,24.52,11,9.25,10.48,17.68,4.42,12.77,10.13,13a8.83,8.83,0,0,1-3.27-2.7s4.67.73,7.05-4.76,2.56-14.49,0-16.6,0-7.6,0-12.38c0-7.14-4.41-9-4-14.11C364.18,178.68,365.38,165.48,345.78,165.48Z" style="fill:#263238"></path><path d="M342.39,184.12a6.4,6.4,0,0,1-1.81,3.43c-1.31,1.32-2.52.74-2.64-.67-.09-1.26.46-3.48,2-4.3S342.6,182.66,342.39,184.12Z" style="fill:#ebb376"></path></g></svg>
