<svg width="108" height="81" viewBox="0 0 108 81" fill="none" xmlns="http://www.w3.org/2000/svg">
<path d="M24.5945 32.3972C23.4087 32.3972 22.2708 32.5789 21.1381 32.7446C21.505 31.5048 21.8826 30.2436 22.4888 29.1106C23.095 27.4647 24.0415 26.0378 24.9827 24.6003C25.7697 23.0452 27.1576 21.9924 28.1785 20.6617C29.2473 19.3685 30.7043 18.5081 31.8582 17.434C32.9909 16.3117 34.4744 15.7506 35.6549 14.9597C36.8886 14.2489 37.9627 13.4633 39.1113 13.0893L41.9774 11.9029L44.4979 10.8501L41.919 0.493408L38.7444 1.26294C37.7288 1.51946 36.4898 1.81872 35.0806 2.17677C33.6396 2.44397 32.1028 3.17611 30.3906 3.84411C28.6996 4.60296 26.7428 5.11599 24.9242 6.33442C23.095 7.49942 20.9839 8.47203 19.1228 10.0325C17.3202 11.641 15.1453 13.0358 13.5394 15.0826C11.7846 16.9957 10.0511 19.0051 8.70581 21.2923C7.14778 23.4727 6.0896 25.8668 4.97292 28.2342C3.96259 30.6016 3.14902 33.0225 2.48433 35.3738C1.22408 40.0873 0.660423 44.5656 0.442406 48.3972C0.26161 52.2342 0.36796 55.4246 0.591296 57.7332C0.671058 58.8234 0.819949 59.8815 0.926299 60.6136L1.05924 61.5114L1.19749 61.4794C2.14327 65.9193 4.32048 69.9995 7.47727 73.2479C10.6341 76.4962 14.6414 78.7801 19.0358 79.8352C23.4302 80.8902 28.032 80.6735 32.3089 79.2099C36.5858 77.7464 40.3631 75.0959 43.2037 71.565C46.0443 68.0342 47.8323 63.7673 48.3607 59.2578C48.8891 54.7484 48.1364 50.1808 46.1896 46.0834C44.2429 41.9859 41.1816 38.5261 37.36 36.1041C33.5384 33.6821 29.1126 32.3969 24.5945 32.3972ZM83.0871 32.3972C81.9013 32.3972 80.7633 32.5789 79.6307 32.7446C79.9976 31.5048 80.3752 30.2436 80.9813 29.1106C81.5875 27.4647 82.5341 26.0378 83.4753 24.6003C84.2622 23.0452 85.6501 21.9924 86.6711 20.6617C87.7399 19.3685 89.1969 18.5081 90.3508 17.434C91.4834 16.3117 92.967 15.7506 94.1475 14.9597C95.3811 14.2489 96.4553 13.4633 97.6039 13.0893L100.47 11.9029L102.991 10.8501L100.412 0.493408L97.237 1.26294C96.2213 1.51946 94.9823 1.81872 93.5732 2.17677C92.1322 2.44397 90.5954 3.17611 88.8832 3.84411C87.1975 4.6083 85.2354 5.11599 83.4168 6.33977C81.5875 7.50476 79.4765 8.47737 77.6154 10.0378C75.8127 11.6464 73.6379 13.0412 72.032 15.0826C70.2772 16.9957 68.5437 19.0051 67.1984 21.2923C65.6403 23.4727 64.5822 25.8668 63.4655 28.2342C62.4552 30.6016 61.6416 33.0225 60.9769 35.3738C59.7166 40.0873 59.153 44.5656 58.935 48.3972C58.7542 52.2342 58.8605 55.4246 59.0839 57.7332C59.1636 58.8234 59.3125 59.8815 59.4189 60.6136L59.5518 61.5114L59.6901 61.4794C60.6358 65.9193 62.813 69.9995 65.9698 73.2479C69.1266 76.4962 73.134 78.7801 77.5284 79.8352C81.9227 80.8902 86.5246 80.6735 90.8015 79.2099C95.0784 77.7464 98.8556 75.0959 101.696 71.565C104.537 68.0342 106.325 63.7673 106.853 59.2578C107.382 54.7484 106.629 50.1808 104.682 46.0834C102.735 41.9859 99.6742 38.5261 95.8526 36.1041C92.0309 33.6821 87.6051 32.3969 83.0871 32.3972Z" fill="#123ABC" fill-opacity="0.2"/>
</svg>
