<svg width="99" height="98" viewBox="0 0 99 98" fill="none" xmlns="http://www.w3.org/2000/svg">
<path fill-rule="evenodd" clip-rule="evenodd" d="M30.2322 0.467674C29.8542 0.846674 29.5442 7.15567 29.5442 14.4897V27.8227H35.0442H40.5442V31.2827V34.7417L32.2942 35.0327L24.0442 35.3227L23.7372 39.5727C23.4332 43.7637 23.3772 43.8227 19.6742 43.8227C16.8642 43.8227 15.2412 43.1157 13.2312 41.0177C10.8292 38.5107 10.5442 37.4577 10.5442 31.0947C10.5442 24.5187 10.7732 23.7477 13.5442 20.9767C16.8122 17.7087 17.1372 16.2177 15.4092 12.4247C13.9902 9.31067 12.0522 8.50467 10.4952 10.3817C9.56723 11.4997 9.56923 12.1477 10.5042 13.2747C12.3232 15.4657 10.8342 18.8227 8.04423 18.8227C5.22523 18.8227 3.77223 15.4587 5.62523 13.2247C7.42623 11.0547 4.35623 7.90367 2.19223 9.69967C-1.36377 12.6507 -0.391769 21.0737 3.65223 22.3567C5.29423 22.8777 5.54423 23.9827 5.54423 30.7157C5.54423 37.6987 5.29423 38.7087 3.04423 40.8227C-0.172769 43.8447 -0.39877 49.6587 2.59423 52.3677C5.76023 55.2327 11.3382 54.8187 13.9662 51.5227C15.6022 49.4717 17.0002 48.8227 19.7882 48.8227H23.4562L23.7502 56.0727L24.0442 63.3227L30.6832 63.8227C36.2222 64.2397 37.7772 64.7777 40.0692 67.0727C41.5802 68.5857 43.6552 69.8227 44.6802 69.8227C47.6662 69.8227 47.1512 75.5797 43.8572 79.0177C41.4282 81.5537 40.5162 81.8227 34.3572 81.8227H27.5442V78.7777C27.5442 75.0267 23.6332 70.8227 20.1452 70.8227C18.7762 70.8227 16.3932 71.9087 14.8502 73.2357C12.1552 75.5547 12.0442 76.0117 12.0442 84.8247C12.0442 93.2607 12.2342 94.1537 14.4052 95.9107C19.7402 100.232 27.5442 96.7257 27.5442 90.0087V86.8227H34.0922C39.9662 86.8227 40.8792 87.1007 42.9622 89.5227C46.2132 93.3017 51.8752 93.3017 55.1262 89.5227C57.2092 87.1007 58.1222 86.8227 63.9962 86.8227H70.5442V90.1487C70.5442 94.5787 73.9932 97.8227 78.7032 97.8227C84.5762 97.8227 86.0442 95.2177 86.0442 84.7987C86.0442 76.8457 85.8072 75.7317 83.6202 73.4037C82.1052 71.7917 80.1182 70.8227 78.3242 70.8227C74.4632 70.8227 70.5442 74.8287 70.5442 78.7777V81.8227H63.7312C57.5722 81.8227 56.6602 81.5537 54.2312 79.0177C50.8982 75.5387 50.4232 69.8227 53.4672 69.8227C54.5252 69.8227 56.7172 68.4957 58.3392 66.8737C60.8912 64.3217 62.1462 63.8847 67.6662 63.6237L74.0442 63.3227L74.3382 56.0727L74.6322 48.8227H78.3002C81.0882 48.8227 82.4862 49.4717 84.1222 51.5227C86.7502 54.8187 92.3282 55.2327 95.4942 52.3677C98.4872 49.6587 98.2612 43.8447 95.0442 40.8227C92.8432 38.7547 92.5442 37.6437 92.5442 31.5307C92.5442 25.1937 92.8142 24.2787 95.6402 21.0607C98.1712 18.1777 98.6232 16.9697 98.1182 14.4417C97.7782 12.7407 96.8342 10.6847 96.0222 9.87167C94.7182 8.56867 94.3482 8.59067 92.8802 10.0587C91.5302 11.4077 91.4512 12.0057 92.4632 13.2247C94.1032 15.2007 92.8972 18.8227 90.5992 18.8227C87.6332 18.8227 85.9202 16.0507 87.4122 13.6627C88.3442 12.1697 88.3742 11.3227 87.5282 10.3037C84.5902 6.76367 80.4562 13.7827 82.5302 18.7897C83.2062 20.4207 84.6112 22.0267 85.6522 22.3567C87.2902 22.8767 87.5442 23.9807 87.5442 30.5857C87.5442 37.5007 87.2932 38.4747 84.8572 41.0177C82.8472 43.1157 81.2242 43.8227 78.4142 43.8227C74.7112 43.8227 74.6552 43.7637 74.3512 39.5727L74.0442 35.3227L65.7942 35.0327L57.5442 34.7417V31.2827V27.8227H63.0722H68.6002L68.3222 14.0727L68.0442 0.322674L49.4822 0.0516737C39.2732 -0.0983263 30.6102 0.0896741 30.2322 0.467674ZM64.5442 13.8227V22.8227H49.0442H33.5442V13.8227V4.82267H49.0442H64.5442V13.8227ZM40.9852 12.9187C40.6122 13.5217 40.9232 14.6297 41.6762 15.3827C43.4102 17.1167 46.0742 15.6457 45.2212 13.4237C44.5182 11.5917 41.9912 11.2907 40.9852 12.9187ZM52.8672 13.4237C52.0142 15.6457 54.6782 17.1167 56.4122 15.3827C57.1652 14.6297 57.4762 13.5217 57.1032 12.9187C56.0972 11.2907 53.5702 11.5917 52.8672 13.4237ZM52.5442 31.3227C52.5442 34.6557 52.3772 34.8227 49.0442 34.8227C45.7112 34.8227 45.5442 34.6557 45.5442 31.3227C45.5442 27.9897 45.7112 27.8227 49.0442 27.8227C52.3772 27.8227 52.5442 27.9897 52.5442 31.3227ZM69.5442 49.3227V58.8227H64.7312C60.6892 58.8227 59.4582 59.3027 57.0442 61.8227C54.5822 64.3917 53.4342 64.8227 49.0442 64.8227C44.6542 64.8227 43.5062 64.3917 41.0442 61.8227C38.6302 59.3027 37.3992 58.8227 33.3572 58.8227H28.5442V49.3227V39.8227H49.0442H69.5442V49.3227ZM10.3442 44.0227C13.3382 47.0167 9.93923 51.7427 6.26823 49.6887C3.37623 48.0697 4.73323 42.8227 8.04423 42.8227C8.64923 42.8227 9.68423 43.3627 10.3442 44.0227ZM92.3442 44.0227C94.0972 45.7757 93.8102 48.6097 91.7682 49.7027C88.0702 51.6817 84.7582 47.0087 87.7442 44.0227C89.2692 42.4977 90.8192 42.4977 92.3442 44.0227ZM41.5802 48.2787C39.4452 50.8517 41.4892 51.8227 49.0442 51.8227C56.5992 51.8227 58.6432 50.8517 56.5082 48.2787C55.6852 47.2877 53.3012 46.8227 49.0442 46.8227C44.7872 46.8227 42.4032 47.2877 41.5802 48.2787ZM22.3442 76.0227C23.7222 77.4007 23.9772 90.5917 22.6662 92.6597C22.1992 93.3957 20.7442 93.8457 19.4312 93.6597C17.1592 93.3387 17.0302 92.9187 16.7512 84.9087C16.5402 78.8517 16.8202 76.2637 17.7512 75.6737C19.5652 74.5227 20.9492 74.6277 22.3442 76.0227ZM80.3372 75.6737C81.2682 76.2637 81.5482 78.8517 81.3372 84.9087L81.0442 93.3227H78.0442H75.0442L74.7502 85.4777C74.3962 76.0167 76.1172 72.9967 80.3372 75.6737ZM51.5042 82.2747C53.5862 84.7837 52.3492 87.3227 49.0442 87.3227C46.9782 87.3227 45.9662 86.7747 45.7252 85.5247C45.3282 83.4627 47.1922 80.8227 49.0442 80.8227C49.7342 80.8227 50.8412 81.4757 51.5042 82.2747Z" fill="black"/>
</svg>
