<svg width="14" height="15" viewBox="0 0 14 15" fill="none" xmlns="http://www.w3.org/2000/svg">
<path fill-rule="evenodd" clip-rule="evenodd" d="M7 0.833374C3.31818 0.833374 0.333328 3.81822 0.333328 7.50004C0.333328 11.1819 3.31818 14.1667 7 14.1667C10.6818 14.1667 13.6667 11.1819 13.6667 7.50004C13.6667 3.81822 10.6818 0.833374 7 0.833374ZM5.66242 5.50428C5.55202 5.38998 5.49093 5.23689 5.49231 5.07798C5.49369 4.91907 5.55743 4.76706 5.6698 4.6547C5.78217 4.54233 5.93418 4.47859 6.09309 4.47721C6.25199 4.47583 6.40508 4.53691 6.51939 4.64731L8.94363 7.07156C9.05725 7.18521 9.12108 7.33934 9.12108 7.50004C9.12108 7.66075 9.05725 7.81487 8.94363 7.92853L6.51939 10.3528C6.40508 10.4632 6.25199 10.5243 6.09309 10.5229C5.93418 10.5215 5.78217 10.4578 5.6698 10.3454C5.55743 10.233 5.49369 10.081 5.49231 9.9221C5.49093 9.7632 5.55202 9.6101 5.66242 9.4958L7.65818 7.50004L5.66242 5.50428Z" fill="white"/>
</svg>
